<svg width="750" height="750" xmlns="http://www.w3.org/2000/svg">
 <style type="text/css">.st0{fill:#383333;}
	.st1{fill:#EEF2F4;}
	.st2{fill:#2B2727;}
	.st3{fill:#72361F;}
	.st4{fill:#5B3318;}
	.st5{fill:#783F21;}
	.st6{opacity:0.4;}
	.st7{clip-path:url(#XMLID_34_);}
	.st8{fill:none;stroke:#300F0F;stroke-width:6;stroke-linecap:round;stroke-linejoin:round;stroke-miterlimit:10;}
	.st9{opacity:0.44;fill:#72361F;enable-background:new    ;}
	.st10{fill:#C9C9C9;}
	.st11{fill:#B5B5B5;}
	.st12{fill:#F45145;}
	.st13{fill:#DB493E;}
	.st14{fill:#AA3930;}
	.st15{fill:#ABABAB;}
	.st16{fill:#3B69A9;}
	.st17{fill:#355E98;}
	.st18{opacity:0.23;fill:#72361F;enable-background:new    ;}
	.st19{fill:#E1E1E1;}
	.st20{fill:#FDC457;}
	.st21{fill:#F2B24C;}
	.st22{fill:#323B40;}
	.st23{fill:#2D363A;}
	.st24{fill:#7D4025;}
	.st25{opacity:8.000000e-02;clip-path:url(#SVGID_2_);}
	.st26{fill:none;stroke:#300F0F;stroke-width:5.8435;stroke-linecap:round;stroke-linejoin:round;stroke-miterlimit:10;}
	.st27{fill:none;stroke:#300F0F;stroke-width:7.8052;stroke-linecap:round;stroke-linejoin:round;stroke-miterlimit:10;}
	.st28{fill:none;stroke:#300F0F;stroke-width:5.3519;stroke-linecap:round;stroke-linejoin:round;stroke-miterlimit:10;}
	.st29{fill:#D98C40;}
	.st30{fill:#C87634;}
	.st31{clip-path:url(#SVGID_4_);}
	.st32{fill:none;stroke:#CF8139;stroke-width:6;stroke-linecap:round;stroke-linejoin:round;stroke-miterlimit:10;}
	.st33{fill:none;stroke:#CF8139;stroke-width:4.9126;stroke-linecap:round;stroke-linejoin:round;stroke-miterlimit:10;}</style>
 <g>
  <title>background</title>
  <rect fill="none" id="canvas_background" height="752" width="752" y="-1" x="-1"/>
 </g>
 <g>
  <title>Layer 1</title>
  <rect stroke="null" id="svg_54" height="750" width="750" y="0" x="0" stroke-opacity="null" stroke-width="null" fill="#9ACEE6"/>
  <g stroke="null" id="XMLID_107_">
   <polygon stroke="null" points="209.38382124900818,191.5829029083252 209.13183760643005,191.5829029083252 187.20460677146912,143.04690742492676 187.20460677146912,143.04690742492676 187.20460677146912,143.04690742492676 187.20460677146912,143.04690742492676 187.20460677146912,143.04690742492676 205.09932112693787,75.42853355407715 252.73416304588318,75.42853355407715 270.880845785141,143.04690742492676 270.880845785141,143.04690742492676 270.880845785141,143.04690742492676 270.880845785141,143.04690742492676 270.880845785141,143.04690742492676 248.70163130760193,191.5829029083252 248.70163130760193,191.5829029083252 248.70163130760193,337.39814949035645 209.38382124900818,337.39814949035645 " class="st10" id="XMLID_26_"/>
   <polygon stroke="null" points="236.0997941493988,191.5829029083252 258.27900862693787,143.04690742492676 258.27900862693787,143.04690742492676 258.27900862693787,143.04690742492676 258.27900862693787,143.04690742492676 240.13232588768005,75.42853355407715 252.73416304588318,75.42853355407715 270.880845785141,143.04690742492676 270.880845785141,143.04690742492676 270.880845785141,143.04690742492676 270.880845785141,143.04690742492676 248.70163130760193,191.5829029083252 248.70163130760193,191.5829029083252 248.70163130760193,337.39814949035645 236.0997941493988,337.39814949035645 " class="st11" id="XMLID_24_"/>
   <path stroke="null" d="m168.301868,637.947544l0,-236.664524c0,-11.408018 8.317213,-21.364107 20.414978,-25.512477c5.040735,-1.659348 5.796846,-7.259648 1.512221,-10.163507l-16.886463,-11.615437c-4.536662,-3.111278 -7.057029,-7.674485 -7.057029,-12.445111l0,-10.993181c0,-4.14837 4.032588,-7.467066 9.073323,-7.467066l106.863587,0c5.040735,0 9.073323,3.318696 9.073323,7.467066l0,10.993181c0,4.770626 -2.520368,9.333833 -7.057029,12.445111l-16.886463,11.615437c-4.032588,2.903859 -3.276478,8.296741 1.512221,10.163507c12.097765,4.355789 20.414978,14.104459 20.414978,25.512477l0,236.664524c0,15.34897 -15.122206,27.794081 -33.772926,27.794081l-53.935867,0c-18.146647,0.207419 -33.268853,-12.445111 -33.268853,-27.794081z" class="st12" id="XMLID_15_"/>
   <path stroke="null" d="m269.620647,637.947544l0,-236.664524c0,-11.408018 -8.317213,-21.364107 -20.414978,-25.512477c-5.040735,-1.659348 -5.796846,-7.259648 -1.512221,-10.163507l16.886463,-11.615437c4.536662,-3.111278 7.057029,-7.674485 7.057029,-12.445111l0,-10.993181c0,-4.14837 -4.032588,-7.467066 -9.073323,-7.467066l20.162941,0c5.040735,0 9.073323,3.318696 9.073323,7.467066l0,10.993181c0,4.770626 -2.520368,9.333833 -7.057029,12.445111l-16.886463,11.615437c-4.032588,2.903859 -3.276478,8.296741 1.512221,10.163507c12.097765,4.355789 20.414978,14.104459 20.414978,25.512477l0,236.664524c0,15.34897 -15.122206,27.794081 -33.772926,27.794081l-20.162941,0c18.65072,0.207419 33.772926,-12.445111 33.772926,-27.794081z" class="st13" id="XMLID_16_"/>
   <path stroke="null" d="m218.205147,625.295015l0,-197.669843c0,-5.807718 -5.544809,-10.370926 -12.601838,-10.370926l0,0c-7.057029,0 -12.601838,4.563207 -12.601838,10.370926l0,197.669843c0,5.807718 5.544809,10.370926 12.601838,10.370926l0,0c7.057029,0 12.601838,-4.770626 12.601838,-10.370926z" class="st14" id="XMLID_23_"/>
   <path stroke="null" d="m264.831948,625.295015l0,-197.669843c0,-5.807718 -5.544809,-10.370926 -12.601838,-10.370926l0,0c-7.057029,0 -12.601838,4.563207 -12.601838,10.370926l0,197.669843c0,5.807718 5.544809,10.370926 12.601838,10.370926l0,0c7.057029,0 12.601838,-4.770626 12.601838,-10.370926z" class="st14" id="XMLID_25_"/>
  </g>
  <g stroke="null" id="XMLID_108_">
   <path stroke="null" d="m560.256718,82.012471c-3.099094,3.961181 -7.747734,9.682888 -11.621602,14.524332c-4.067561,5.06151 -10.846828,5.941772 -15.882855,1.760525c-11.040521,-9.022691 -29.247697,-24.647351 -52.297207,-26.627941c-33.315258,-3.080919 -55.783687,10.343085 -76.12149,28.388466c-30.022471,26.848007 -49.00442,58.977589 -59.076475,78.783496c7.554041,7.482231 10.846828,9.682888 16.657629,15.184529c9.490975,-11.223347 28.085537,-34.77037 54.427834,-42.252601c4.067561,-1.100328 11.234215,-3.080919 19.756723,0c2.9054,1.100328 8.328814,3.52105 13.171148,9.682888c8.328814,10.56315 7.747734,23.547023 7.747734,26.407876l0,85.385465l49.391807,0l0,-81.644349c-0.968467,-14.304266 4.454947,-27.508204 13.945922,-33.009845c0.774773,-0.440131 10.072055,-5.721706 19.175643,-1.760525c6.585574,2.860853 14.720695,11.443413 20.918883,18.265447c0.58108,0.660197 2.130627,2.200656 4.648641,3.300984c1.355854,0.440131 2.9054,0.880263 4.261254,0.660197c8.909895,-0.220066 27.11707,-0.660197 39.707139,-1.320394c6.004494,-0.220066 10.653135,-5.721706 10.653135,-12.543741l0,-74.382183c0,-6.822035 -4.842334,-12.323675 -10.846828,-12.543741c-12.008988,-0.220066 -29.054004,-0.660197 -39.319752,-0.880263c-3.48648,0 -6.972961,1.760525 -9.297281,4.621378z" class="st10" id="XMLID_9_"/>
   <g stroke="null" id="XMLID_12_">
    <path stroke="null" d="m432.031715,147.812094c-5.423414,-7.0421 -12.008988,-9.902953 -15.108082,-11.223347c-9.684668,-3.52105 -18.207176,-1.320394 -22.855816,0c-14.527002,3.961181 -26.923377,12.323675 -37.189125,21.346366c-4.648641,7.702297 -8.522508,14.744397 -11.621602,20.686169c7.554041,7.482231 10.846828,9.682888 16.657629,15.184529c9.490975,-11.223347 28.085537,-34.77037 54.427834,-42.252601c3.680174,-1.100328 10.265748,-2.860853 18.013482,-0.660197c-0.58108,-0.660197 -1.355854,-1.760525 -2.32432,-3.080919z" class="st15" id="XMLID_27_"/>
    <path stroke="null" d="m617.008873,166.737738c-14.527002,0.440131 -35.639578,1.100328 -45.905326,1.320394c-1.74324,0 -3.48648,-0.220066 -5.036027,-0.880263c-2.9054,-1.100328 -4.842334,-3.080919 -5.423414,-3.741116c-7.166654,-7.702297 -16.657629,-17.60525 -24.21167,-20.906235c-10.459441,-4.621378 -21.30627,1.760525 -22.081043,2.200656c-10.846828,6.601969 -17.045016,21.566432 -16.076549,38.29142l0,90.66704l8.328814,0l0,-81.644349c-0.968467,-14.304266 4.454947,-27.508204 13.945922,-33.009845c0.774773,-0.440131 10.072055,-5.721706 19.175643,-1.760525c6.585574,2.860853 14.720695,11.443413 20.918883,18.265447c0.58108,0.660197 2.130627,2.200656 4.648641,3.300984c1.355854,0.440131 2.9054,0.880263 4.261254,0.660197c8.909895,-0.220066 27.11707,-0.660197 39.707139,-1.320394c5.617107,-0.220066 10.265748,-5.281575 10.653135,-11.443413c-0.968467,-0.220066 -1.936934,0 -2.9054,0z" class="st15" id="XMLID_44_"/>
   </g>
   <path stroke="null" d="m487.815402,662.985736l-9.297281,0c-24.405363,0 -43.774699,-27.288138 -42.999926,-60.077917l9.103588,-329.43825l77.089957,0l9.103588,329.43825c0.774773,32.789779 -18.594562,60.077917 -42.999926,60.077917z" class="st16" id="XMLID_4_"/>
   <path stroke="null" d="m530.815328,602.907819l-9.103588,-329.43825l-18.788256,0l9.103588,329.43825c0.774773,30.589123 -16.076549,56.336802 -38.157592,59.637786c1.549547,0.220066 3.099094,0.440131 4.648641,0.440131l9.297281,0c24.405363,0 43.774699,-27.288138 42.999926,-60.077917z" class="st17" id="XMLID_93_"/>
   <path stroke="null" d="m531.783795,300.097511l-97.234066,0c-6.391881,0 -11.621602,-5.941772 -11.621602,-13.203938l0,0c0,-7.262166 5.229721,-13.203938 11.621602,-13.203938l97.234066,0c6.391881,0 11.621602,5.941772 11.621602,13.203938l0,0c0,7.262166 -5.229721,13.203938 -11.621602,13.203938z" class="st17" id="XMLID_7_"/>
  </g>
 </g>
</svg>